<?xml version="1.0" encoding="utf-8"?>
<!-- Generator: Adobe Illustrator 19.0.0, SVG Export Plug-In . SVG Version: 6.00 Build 0)  -->
<svg version="1.1" xmlns="http://www.w3.org/2000/svg" xmlns:xlink="http://www.w3.org/1999/xlink" x="0px" y="0px"
	 viewBox="0 0 850 650" style="enable-background:new 0 0 850 650;" xml:space="preserve">
<style type="text/css">
	.st0{display:none;}
	.st1{display:inline;fill:#323232;stroke:#F7F7F8;stroke-width:6;stroke-miterlimit:10;}
	.st2{fill:none;stroke:#5B5B5F;stroke-miterlimit:10;}
	.st3{fill:none;stroke:#F7F7F8;stroke-width:6;stroke-miterlimit:10;}
	.st4{fill:none;stroke:#AEADB3;stroke-width:6;stroke-miterlimit:10;}
	.st5{fill:none;stroke:#727176;stroke-miterlimit:10;}
	.st6{fill-rule:evenodd;clip-rule:evenodd;fill:#469F7B;stroke:url(#XMLID_14_);stroke-width:5;stroke-miterlimit:10;}
	.st7{fill-rule:evenodd;clip-rule:evenodd;fill:#CF724E;stroke:url(#XMLID_48_);stroke-width:5;stroke-miterlimit:10;}
	.st8{fill-rule:evenodd;clip-rule:evenodd;fill:#469F7B;stroke:url(#XMLID_49_);stroke-width:5;stroke-miterlimit:10;}
	.st9{fill-rule:evenodd;clip-rule:evenodd;fill:#469F7B;stroke:url(#XMLID_51_);stroke-width:5;stroke-miterlimit:10;}
	.st10{fill-rule:evenodd;clip-rule:evenodd;fill:#469F7B;stroke:url(#XMLID_52_);stroke-width:5;stroke-miterlimit:10;}
	.st11{fill-rule:evenodd;clip-rule:evenodd;fill:#469F7B;stroke:url(#XMLID_53_);stroke-width:5;stroke-miterlimit:10;}
	.st12{fill:#323232;stroke:url(#XMLID_55_);stroke-width:8;stroke-miterlimit:10;}
	.st13{fill:#323232;stroke:url(#XMLID_56_);stroke-width:8;stroke-miterlimit:10;}
	.st14{fill:#323232;stroke:url(#XMLID_57_);stroke-width:8;stroke-miterlimit:10;}
	.st15{fill:#323232;stroke:url(#XMLID_58_);stroke-width:8;stroke-miterlimit:10;}
	.st16{fill-rule:evenodd;clip-rule:evenodd;fill:#CF724E;stroke:url(#XMLID_60_);stroke-width:5;stroke-miterlimit:10;}
	.st17{fill-rule:evenodd;clip-rule:evenodd;fill:#469F7B;stroke:url(#XMLID_61_);stroke-width:5;stroke-miterlimit:10;}
	.st18{fill:#323232;stroke:url(#XMLID_62_);stroke-width:8;stroke-miterlimit:10;}
	.st19{fill:#323232;stroke:url(#XMLID_63_);stroke-width:8;stroke-miterlimit:10;}
	.st20{fill:#323232;stroke:url(#XMLID_64_);stroke-width:8;stroke-miterlimit:10;}
	.st21{fill:#C2C3C9;}
	.st22{fill:none;stroke:#727176;stroke-width:5;stroke-miterlimit:10;}
	.st23{fill:none;stroke:#87868A;stroke-width:6;stroke-miterlimit:10;}
</style>
<g id="Camada_2" class="st0">
	<rect id="XMLID_44_" x="-1" class="st1" width="850" height="650"/>
</g>
<g id="Camada_1">
	<line id="XMLID_46_" class="st2" x1="24.7" y1="62" x2="820.3" y2="61.3"/>
	<line id="XMLID_41_" class="st2" x1="23.3" y1="127.3" x2="821.7" y2="126.7"/>
	<line id="XMLID_40_" class="st2" x1="23.3" y1="192.7" x2="821.7" y2="192"/>
	<line id="XMLID_39_" class="st2" x1="24" y1="258" x2="821" y2="257.3"/>
	<line id="XMLID_36_" class="st2" x1="23.3" y1="323.3" x2="821.7" y2="322.7"/>
	<line id="XMLID_35_" class="st2" x1="25.4" y1="388.7" x2="819.6" y2="388"/>
	<line id="XMLID_34_" class="st2" x1="24.7" y1="454" x2="820.3" y2="453.4"/>
	<line id="XMLID_33_" class="st2" x1="23.3" y1="519.3" x2="821.7" y2="518.7"/>
	<line id="XMLID_20_" class="st2" x1="24.7" y1="584.7" x2="820.3" y2="584"/>
	<path id="XMLID_196_" class="st3" d="M16.5,59.5"/>
	<line id="XMLID_42_" class="st2" x1="784" y1="61.6" x2="784.7" y2="630.4"/>
	<g id="XMLID_45_">
		<path id="XMLID_267_" class="st4" d="M1028.1-149.7"/>
		<path id="XMLID_266_" class="st4" d="M263.2-150.1"/>
		<path id="XMLID_218_" class="st4" d="M1024.8,418.1"/>
		<path id="XMLID_47_" class="st4" d="M1024.2-150.7"/>
	</g>
	<path id="XMLID_70_" class="st4" d="M916.5-50.6"/>
	<g id="XMLID_69_">
		<path id="XMLID_263_" class="st5" d="M865.4-3.2"/>
		<path id="XMLID_262_" class="st5" d="M100.5-3.6"/>
		<path id="XMLID_215_" class="st5" d="M862.2,564.6"/>
		<path id="XMLID_80_" class="st5" d="M861.5-4.2"/>
	</g>
	<path id="XMLID_261_" class="st4" d="M918.9-49.6"/>
	<path id="XMLID_78_" class="st2" d="M746.8,90.1"/>
	<g id="XMLID_77_">
		<path id="XMLID_259_" class="st2" d="M695.7,137.4"/>
		<path id="XMLID_258_" class="st2" d="M-69.2,137.1"/>
		<path id="XMLID_213_" class="st2" d="M692.5,705.3"/>
		<path id="XMLID_93_" class="st2" d="M691.8,136.4"/>
	</g>
	<g id="XMLID_74_">
		<path id="XMLID_257_" class="st2" d="M643.2,189.9"/>
		<path id="XMLID_256_" class="st2" d="M-121.7,189.6"/>
		<path id="XMLID_202_" class="st2" d="M639.9,757.8"/>
		<path id="XMLID_90_" class="st2" d="M639.3,188.9"/>
	</g>
	<g id="XMLID_92_">
		<path id="XMLID_150_" class="st2" d="M584.4,230.8"/>
		<path id="XMLID_149_" class="st2" d="M-180.5,230.4"/>
		<path id="XMLID_209_" class="st2" d="M581.2,798.6"/>
		<path id="XMLID_75_" class="st2" d="M580.5,236.8"/>
	</g>
	<g id="XMLID_88_">
		<path id="XMLID_223_" class="st2" d="M531.9,283.3"/>
		<path id="XMLID_222_" class="st2" d="M-233,282.9"/>
		<path id="XMLID_201_" class="st2" d="M528.6,851.1"/>
		<path id="XMLID_85_" class="st2" d="M528,282.3"/>
	</g>
	<path id="XMLID_191_" class="st2" d="M465.8,324.1"/>
	<line id="XMLID_59_" class="st2" x1="718.7" y1="61.6" x2="719.3" y2="630.4"/>
	<line id="XMLID_169_" class="st2" x1="653.4" y1="62.6" x2="654" y2="629.4"/>
	<line id="XMLID_172_" class="st2" x1="588" y1="61.6" x2="588.7" y2="630.4"/>
	<line id="XMLID_171_" class="st2" x1="522.7" y1="61.6" x2="523.3" y2="630.4"/>
	<line id="XMLID_170_" class="st2" x1="457.3" y1="62.1" x2="458" y2="629.9"/>
	<line id="XMLID_190_" class="st2" x1="392" y1="61.6" x2="392.7" y2="630.4"/>
	<line id="XMLID_189_" class="st2" x1="326.7" y1="63.1" x2="327.3" y2="628.9"/>
	<line id="XMLID_175_" class="st2" x1="261.3" y1="62.6" x2="262" y2="629.4"/>
	<line id="XMLID_174_" class="st2" x1="196" y1="61.6" x2="196.6" y2="630.4"/>
	<line id="XMLID_173_" class="st2" x1="130.7" y1="62.6" x2="131.3" y2="629.4"/>
	<line id="XMLID_195_" class="st2" x1="65.3" y1="63.1" x2="66" y2="628.9"/>
	<path id="XMLID_192_" class="st4" d="M258.4-201.1"/>
	
		<linearGradient id="XMLID_14_" gradientUnits="userSpaceOnUse" x1="735.0808" y1="181.8228" x2="829.9625" y2="181.8228" gradientTransform="matrix(1.786898e-004 -1 1 1.786898e-004 519.3987 931.36)">
		<stop  offset="0" style="stop-color:#CF724F"/>
		<stop  offset="0.3197" style="stop-color:#7C748A"/>
		<stop  offset="0.5255" style="stop-color:#246FAA"/>
		<stop  offset="0.6972" style="stop-color:#32839E"/>
		<stop  offset="0.9028" style="stop-color:#419987"/>
		<stop  offset="1" style="stop-color:#479F7B"/>
	</linearGradient>
	<path id="XMLID_31_" class="st6" d="M689.1,192.8l35.5-39.7l15.1,13.5l2.9-62.1l-61.4,10l15.1,13.5l-35.5,39.7L689.1,192.8z"/>
	
		<linearGradient id="XMLID_48_" gradientUnits="userSpaceOnUse" x1="592.3063" y1="230.4575" x2="700.4952" y2="230.4575" gradientTransform="matrix(0.6663 -0.7457 0.7457 0.6663 40.4405 543.8806)">
		<stop  offset="0" style="stop-color:#CF724F"/>
		<stop  offset="0.3197" style="stop-color:#7C748A"/>
		<stop  offset="0.5255" style="stop-color:#246FAA"/>
		<stop  offset="0.6972" style="stop-color:#32839E"/>
		<stop  offset="0.9028" style="stop-color:#419987"/>
		<stop  offset="1" style="stop-color:#479F7B"/>
	</linearGradient>
	<path id="XMLID_29_" class="st7" d="M662.9,164.3l-35.2,39.9l-15.2-13.4l-2.6,62.2l61.4-10.3L656,229.3l35.2-39.9L662.9,164.3z"/>
	
		<linearGradient id="XMLID_49_" gradientUnits="userSpaceOnUse" x1="555.546" y1="294.9595" x2="664.1498" y2="294.9595" gradientTransform="matrix(0.674 -0.7388 0.7388 0.674 -61.6786 549.8358)">
		<stop  offset="0" style="stop-color:#CF724F"/>
		<stop  offset="0.3197" style="stop-color:#7C748A"/>
		<stop  offset="0.5255" style="stop-color:#246FAA"/>
		<stop  offset="0.6972" style="stop-color:#32839E"/>
		<stop  offset="0.9028" style="stop-color:#419987"/>
		<stop  offset="1" style="stop-color:#479F7B"/>
	</linearGradient>
	<path id="XMLID_27_" class="st8" d="M545.3,348.1l37-38.4l14.6,14.1l5.3-62l-61.7,7.6l14.6,14.1l-37,38.4L545.3,348.1z"/>
	
		<linearGradient id="XMLID_51_" gradientUnits="userSpaceOnUse" x1="427.5817" y1="536.1907" x2="516.4417" y2="536.1907" gradientTransform="matrix(-0.6173 -0.7867 0.7867 -0.6173 336.6191 1101.2885)">
		<stop  offset="0" style="stop-color:#CF724F"/>
		<stop  offset="0.3197" style="stop-color:#7C748A"/>
		<stop  offset="0.5255" style="stop-color:#246FAA"/>
		<stop  offset="0.6972" style="stop-color:#32839E"/>
		<stop  offset="0.9028" style="stop-color:#419987"/>
		<stop  offset="1" style="stop-color:#479F7B"/>
	</linearGradient>
	<path id="XMLID_25_" class="st9" d="M439,445.9l41.4-33.5l12.7,15.8l13-60.8l-62.2-0.1l12.7,15.8l-41.4,33.5L439,445.9z"/>
	
		<linearGradient id="XMLID_52_" gradientUnits="userSpaceOnUse" x1="79.8326" y1="526.4483" x2="188.6258" y2="526.4483" gradientTransform="matrix(0.8196 -0.5729 0.5729 0.8196 -291.7198 166.3367)">
		<stop  offset="0" style="stop-color:#CF724F"/>
		<stop  offset="0.3197" style="stop-color:#7C748A"/>
		<stop  offset="0.5255" style="stop-color:#246FAA"/>
		<stop  offset="0.6972" style="stop-color:#32839E"/>
		<stop  offset="0.9028" style="stop-color:#419987"/>
		<stop  offset="1" style="stop-color:#479F7B"/>
	</linearGradient>
	<path id="XMLID_23_" class="st10" d="M90.5,566.9l42.5-32.2l12.2,16.2l14.9-60.4l-62.2-2.1l12.2,16.2l-42.5,32.2L90.5,566.9z"/>
	
		<linearGradient id="XMLID_53_" gradientUnits="userSpaceOnUse" x1="234.1611" y1="496.872" x2="329.0428" y2="496.872" gradientTransform="matrix(-5.359528e-002 -0.9986 0.9986 -5.359528e-002 -263.1232 743.4807)">
		<stop  offset="0" style="stop-color:#CF724F"/>
		<stop  offset="0.3197" style="stop-color:#7C748A"/>
		<stop  offset="0.5255" style="stop-color:#246FAA"/>
		<stop  offset="0.6972" style="stop-color:#32839E"/>
		<stop  offset="0.9028" style="stop-color:#419987"/>
		<stop  offset="1" style="stop-color:#479F7B"/>
	</linearGradient>
	<path id="XMLID_21_" class="st11" d="M208.1,480.2l33.3-41.6l15.8,12.7l-0.4-62.2L196,402.3l15.8,12.7l-33.3,41.6L208.1,480.2z"/>
	<linearGradient id="XMLID_55_" gradientUnits="userSpaceOnUse" x1="740.4063" y1="65.2858" x2="827.8132" y2="65.2858">
		<stop  offset="0" style="stop-color:#CF724F"/>
		<stop  offset="0.3197" style="stop-color:#7C748A"/>
		<stop  offset="0.5255" style="stop-color:#246FAA"/>
		<stop  offset="0.6972" style="stop-color:#32839E"/>
		<stop  offset="0.9028" style="stop-color:#419987"/>
		<stop  offset="1" style="stop-color:#479F7B"/>
	</linearGradient>
	<polygon id="XMLID_15_" class="st12" points="770.3,102.5 745,72 758.7,34.7 797.9,28 823.3,58.6 809.5,95.8 	"/>
	<linearGradient id="XMLID_56_" gradientUnits="userSpaceOnUse" x1="42.6133" y1="548.1402" x2="130.0202" y2="548.1402">
		<stop  offset="0" style="stop-color:#CF724F"/>
		<stop  offset="0.3197" style="stop-color:#7C748A"/>
		<stop  offset="0.5255" style="stop-color:#246FAA"/>
		<stop  offset="0.6972" style="stop-color:#32839E"/>
		<stop  offset="0.9028" style="stop-color:#419987"/>
		<stop  offset="1" style="stop-color:#479F7B"/>
	</linearGradient>
	<polygon id="XMLID_1_" class="st13" points="72.5,585.4 47.2,554.8 60.9,517.6 100.1,510.9 125.5,541.4 111.7,578.7 	"/>
	<linearGradient id="XMLID_57_" gradientUnits="userSpaceOnUse" x1="495.4199" y1="327.9898" x2="583.0972" y2="327.9898">
		<stop  offset="0" style="stop-color:#CF724F"/>
		<stop  offset="0.3197" style="stop-color:#7C748A"/>
		<stop  offset="0.5255" style="stop-color:#246FAA"/>
		<stop  offset="0.6972" style="stop-color:#32839E"/>
		<stop  offset="0.9028" style="stop-color:#419987"/>
		<stop  offset="1" style="stop-color:#479F7B"/>
	</linearGradient>
	<polygon id="XMLID_2_" class="st14" points="553.7,365 514.5,359 500,322 524.8,291 564,297 578.5,333.9 	"/>
	<linearGradient id="XMLID_58_" gradientUnits="userSpaceOnUse" x1="393.3964" y1="423.6469" x2="471.9966" y2="423.6469">
		<stop  offset="0" style="stop-color:#CF724F"/>
		<stop  offset="0.3197" style="stop-color:#7C748A"/>
		<stop  offset="0.5255" style="stop-color:#246FAA"/>
		<stop  offset="0.6972" style="stop-color:#32839E"/>
		<stop  offset="0.9028" style="stop-color:#419987"/>
		<stop  offset="1" style="stop-color:#479F7B"/>
	</linearGradient>
	<polygon id="XMLID_3_" class="st15" points="399.2,444.9 397.5,405.3 431,384 466.2,402.4 467.9,442 434.4,463.3 	"/>
	
		<linearGradient id="XMLID_60_" gradientUnits="userSpaceOnUse" x1="248.2463" y1="330.5914" x2="343.1281" y2="330.5914" gradientTransform="matrix(-1.636767e-002 -0.9999 0.9999 -1.636767e-002 -24.3829 637.7606)">
		<stop  offset="0" style="stop-color:#CF724F"/>
		<stop  offset="0.3197" style="stop-color:#7C748A"/>
		<stop  offset="0.5255" style="stop-color:#246FAA"/>
		<stop  offset="0.6972" style="stop-color:#32839E"/>
		<stop  offset="0.9028" style="stop-color:#419987"/>
		<stop  offset="1" style="stop-color:#479F7B"/>
	</linearGradient>
	<path id="XMLID_16_" class="st16" d="M312.8,292.6L278,332.9l-15.4-13.3l-1.9,62.2l61.2-11l-15.4-13.3l34.8-40.3L312.8,292.6z"/>
	
		<linearGradient id="XMLID_61_" gradientUnits="userSpaceOnUse" x1="303.9054" y1="345.4147" x2="412.0424" y2="345.4147" gradientTransform="matrix(0.6102 0.7923 -0.7923 0.6102 418.7027 -149.2623)">
		<stop  offset="0" style="stop-color:#CF724F"/>
		<stop  offset="0.3197" style="stop-color:#7C748A"/>
		<stop  offset="0.5255" style="stop-color:#246FAA"/>
		<stop  offset="0.6972" style="stop-color:#32839E"/>
		<stop  offset="0.9028" style="stop-color:#419987"/>
		<stop  offset="1" style="stop-color:#479F7B"/>
	</linearGradient>
	<path id="XMLID_17_" class="st17" d="M317.2,315.7l32.4,42.3l-16.1,12.3l60.5,14.6l1.8-62.2l-16.1,12.3l-32.4-42.3L317.2,315.7z"/>
	<linearGradient id="XMLID_62_" gradientUnits="userSpaceOnUse" x1="289.3844" y1="308.8465" x2="375.7997" y2="308.8465">
		<stop  offset="0" style="stop-color:#CF724F"/>
		<stop  offset="0.3197" style="stop-color:#7C748A"/>
		<stop  offset="0.5255" style="stop-color:#246FAA"/>
		<stop  offset="0.6972" style="stop-color:#32839E"/>
		<stop  offset="0.9028" style="stop-color:#419987"/>
		<stop  offset="1" style="stop-color:#479F7B"/>
	</linearGradient>
	<polygon id="XMLID_5_" class="st18" points="321,346.8 293.9,317.8 305.5,279.8 344.2,270.9 371.3,299.9 359.7,337.9 	"/>
	<linearGradient id="XMLID_63_" gradientUnits="userSpaceOnUse" x1="159.6282" y1="463.7591" x2="240.1889" y2="463.7591">
		<stop  offset="0" style="stop-color:#CF724F"/>
		<stop  offset="0.3197" style="stop-color:#7C748A"/>
		<stop  offset="0.5255" style="stop-color:#246FAA"/>
		<stop  offset="0.6972" style="stop-color:#32839E"/>
		<stop  offset="0.9028" style="stop-color:#419987"/>
		<stop  offset="1" style="stop-color:#479F7B"/>
	</linearGradient>
	<polygon id="XMLID_7_" class="st19" points="163.8,480.4 167.5,440.8 203.6,424.2 236,447.2 232.3,486.7 196.2,503.3 	"/>
	<linearGradient id="XMLID_64_" gradientUnits="userSpaceOnUse" x1="632.1553" y1="179.4332" x2="719.5622" y2="179.4332">
		<stop  offset="0" style="stop-color:#CF724F"/>
		<stop  offset="0.3197" style="stop-color:#7C748A"/>
		<stop  offset="0.5255" style="stop-color:#246FAA"/>
		<stop  offset="0.6972" style="stop-color:#32839E"/>
		<stop  offset="0.9028" style="stop-color:#419987"/>
		<stop  offset="1" style="stop-color:#479F7B"/>
	</linearGradient>
	<polygon id="XMLID_10_" class="st20" points="662.1,216.7 636.7,186.1 650.5,148.9 689.6,142.2 715,172.7 701.2,210 	"/>
	<g id="XMLID_54_">
		<path id="XMLID_125_" class="st21" d="M67.6,569.7c0.1-0.7,0.2-1.4,0.2-2c0.2-1.9,0.4-3.8,0.5-5.8c0.2-1.8,0.3-3.7,0.5-5.5
			c0.1-1.2,0.2-2.4,0.3-3.6c0-0.2,0-0.4,0-0.6c0-4.6,0-9.1,0-13.7c0-2.1,1.4-3.8,3.2-4.1c1.3-0.2,2.7-0.3,4.1,0.2
			c1.5,0.5,2.6,2,2.6,3.6c0,0.6,0,1.2,0,1.7c-0.5-0.5-1-1-1.5-1.4c0,0-0.1,0.1-0.1,0.1c0,0.1,0.1,0.2,0.1,0.3
			c0.5,0.9,0.9,1.9,1.4,2.8c0.1,0.2,0.3,0.4,0.5,0.5c1.7,0.7,3.5,1.3,5.2,2c-0.9,1.3-1.1,2.7-0.3,4.2c-0.2-0.1-0.3-0.1-0.4-0.1
			c-2.3-0.9-4.5-1.8-6.8-2.6c-0.7-0.3-1.1-0.7-1.4-1.3c-0.6-1.3-1.3-2.6-2-3.9c0.1,0.4,0.1,0.9,0.2,1.3c0.2,1.2,0.3,2.4,0.5,3.5
			c0.1,0.7,0.5,1.2,1.2,1.5c1,0.4,2,0.8,3.1,1.2c0.3,0.1,0.4,0.2,0.4,0.5c0,0.8,0,1.6,0,2.3c-0.1,1.5,0.4,2.9,0.8,4.3
			c1.3,4.7,2.6,9.3,3.9,14c0.4,1.4-0.2,2.6-1.6,3.1c0,0-0.1,0-0.1,0.1c-0.4,0-0.8,0-1.3,0c-0.9-0.4-1.5-1-1.8-2
			c-1.3-4.7-2.6-9.3-3.9-14c-0.2-0.8-0.2-0.8-1.1-0.8c-0.1,0-0.2,0-0.3,0c0,0.1-0.1,0.2-0.1,0.3c-0.2,2.3-0.4,4.6-0.6,6.9
			c-0.2,2.4-0.4,4.8-0.7,7.2c-0.1,0.8-0.4,1.5-1.1,1.9c-0.2,0.1-0.5,0.2-0.7,0.4c-0.4,0-0.8,0-1.3,0c-0.3-0.1-0.6-0.3-0.8-0.5
			c-0.6-0.4-0.9-1.1-1-1.8C67.6,569.9,67.6,569.8,67.6,569.7z"/>
		<path id="XMLID_124_" class="st21" d="M95.4,572.3c-0.9-0.3-1.6-0.9-1.8-1.9c0-0.2-0.1-0.4-0.1-0.6c0-7.1,0-14.2,0-21.3
			c0-0.3,0.1-0.4,0.3-0.5c1-0.4,2-0.8,2.9-1.1c0.8-0.3,1.3-0.9,1.4-1.7c0.2-1.6,0.5-3.2,0.8-4.8c0-0.1,0-0.1,0-0.3
			c-0.1,0.2-0.2,0.3-0.2,0.5c-0.6,1.3-1.3,2.6-1.9,3.9c-0.3,0.6-0.7,1-1.3,1.2c-2.4,0.9-4.9,1.9-7.3,2.8c-1.2,0.5-2.4-0.2-2.7-1.3
			c-0.3-1,0.2-2,1.2-2.4c1.7-0.7,3.3-1.3,5-2c0.6-0.2,1.2-0.3,1.6-0.7c0.4-0.4,0.6-1,0.8-1.5c0.3-0.7,0.7-1.4,1-2.2
			c-0.5,0.6-1.1,1.1-1.6,1.7c-0.5-2.8,0.7-5.4,3.9-5.6c0.9-0.1,1.8-0.1,2.6,0.1c1.6,0.3,2.6,1.3,3.1,2.9c0,0.1,0.1,0.2,0.1,0.2
			c0,11,0,21.9,0,32.9c-0.3,0.9-0.9,1.5-1.8,1.8c-0.4,0-0.8,0-1.2,0c-1.4-0.5-1.8-1.5-1.8-2.9c0-4.5,0-8.9,0-13.4c0-0.2,0-0.3,0-0.5
			c-0.6,0-1.1,0-1.6,0c0,0.2,0,0.3,0,0.5c0,4.4,0,8.9,0,13.3c0,0.9,0,1.7,0.5,2.6c-0.3,0.2-0.6,0.3-0.9,0.4
			C96.1,572.3,95.8,572.3,95.4,572.3z"/>
		<path id="XMLID_118_" class="st21" d="M74.1,533.4c-2.6,0-4.7-2.2-4.7-4.8c0-2.6,2.2-4.7,4.8-4.7c2.6,0,4.7,2.2,4.7,4.7
			C78.8,531.3,76.7,533.4,74.1,533.4z"/>
		<path id="XMLID_117_" class="st21" d="M93.7,528.7c0-2.6,2.1-4.7,4.7-4.7c2.6,0,4.7,2.1,4.7,4.6c0,2.6-2.1,4.8-4.7,4.8
			C95.9,533.4,93.8,531.3,93.7,528.7z"/>
	</g>
	<g id="XMLID_12_">
		<path id="XMLID_210_" class="st21" d="M341.7,329.3c-9,0-17.9,0-26.9,0c-0.3-0.2-0.5-0.5-0.6-0.8c0-12.4,0-24.9,0-37.3
			c0.3-0.7,0.5-0.9,1.3-0.9c8.6,0,17.1,0,25.7,0c0.8,0,1.2,0.3,1.2,1.2c0,12.2,0,24.4,0,36.7C342.3,328.7,342.2,329.1,341.7,329.3z
			 M316.2,292.3c0,11.7,0,23.4,0,35c8.1,0,16.1,0,24.1,0c0-11.7,0-23.3,0-35C332.3,292.3,324.3,292.3,316.2,292.3z"/>
		<path id="XMLID_204_" class="st21" d="M351.4,320.5c-0.8,1.6-1.6,3.1-2.4,4.7c-0.1,0.1-0.2,0.3-0.3,0.4c-0.4,0.5-1.2,0.4-1.5-0.2
			c-0.1-0.2-0.2-0.3-0.3-0.5c-0.7-1.4-1.4-2.8-2.1-4.2c-0.1-0.2-0.2-0.5-0.2-0.7c0-7.7,0-15.5,0-23.2c0-0.7,0.4-1.1,1.1-1.1
			c1.4,0,2.9,0,4.3,0c0.5,0,1,0.1,1.3,0.6C351.4,304.3,351.4,312.4,351.4,320.5z M346.7,300.8c0,6.1,0,12.2,0,18.3
			c0.9,0,1.8,0,2.7,0c0-6.1,0-12.2,0-18.3C348.6,300.8,347.7,300.8,346.7,300.8z M346.7,298.8c0.9,0,1.8,0,2.8,0c0-0.4,0-0.8,0-1.2
			c-0.9,0-1.9,0-2.8,0C346.7,298.1,346.7,298.4,346.7,298.8z M348.9,321.1c-0.5,0-1,0-1.5,0c0.3,0.5,0.5,1,0.8,1.6
			C348.4,322.1,348.6,321.7,348.9,321.1z"/>
		<path id="XMLID_186_" class="st21" d="M328.3,301.9c-2.8,0-5.7,0-8.5,0c-0.9,0-1.2-0.3-1.2-1.2c0-1.6,0-3.3,0-4.9
			c0-0.8,0.4-1.2,1.2-1.2c5.7,0,11.4,0,17.1,0c0.8,0,1.2,0.4,1.2,1.2c0,1.6,0,3.3,0,4.9c0,0.8-0.4,1.2-1.2,1.2
			C334,301.9,331.1,301.9,328.3,301.9z M320.6,299.9c5.2,0,10.3,0,15.4,0c0-1.1,0-2.2,0-3.2c-5.2,0-10.3,0-15.4,0
			C320.6,297.8,320.6,298.8,320.6,299.9z"/>
		<path id="XMLID_183_" class="st21" d="M328.3,320.5c-0.4,0-0.9,0-1.3,0c-0.7,0-1-0.3-1.2-0.9c-0.1-0.4-0.2-0.9-0.3-1.3
			c-0.1-0.7-0.5-1.3-1-1.8c-0.8-0.9-1.5-1.9-1.7-3.2c-0.2-1.5,0.2-2.9,1.1-4c1.4-1.7,3.3-2.5,5.5-2c2.3,0.5,3.7,1.9,4.3,4.1
			c0.5,1.8-0.1,3.4-1.3,4.8c-0.3,0.4-0.7,0.7-0.9,1.2c-0.3,0.7-0.5,1.4-0.7,2.1c-0.1,0.2-0.1,0.4-0.2,0.6c-0.2,0.3-0.5,0.5-0.9,0.5
			C329.2,320.5,328.8,320.5,328.3,320.5z M328.3,318.5c0.1,0,0.1,0,0.2,0c0.5,0,0.5,0,0.6-0.5c0.2-1.2,0.8-2.1,1.6-3
			c0.7-0.8,1.2-1.7,1.1-2.8c-0.2-1.7-1.7-3.2-3.8-3.1c-1.7,0.1-3.2,1.6-3.3,3.4c0,1,0.5,1.8,1.2,2.6c0.7,0.8,1.3,1.7,1.5,2.7
			C327.5,318.5,327.5,318.5,328.3,318.5z"/>
		<path id="XMLID_182_" class="st21" d="M328.3,321.4c0.4,0,0.7,0,1.1,0c0.6,0,1,0.4,1,1c0,0.6-0.4,1-1,1c-0.7,0-1.5,0-2.2,0
			c-0.6,0-1-0.5-1-1c0-0.5,0.5-1,1-1C327.6,321.4,327.9,321.4,328.3,321.4z"/>
		<path id="XMLID_181_" class="st21" d="M328.3,306c-0.6,0-1-0.4-1-1c0-0.6,0.4-1,1-1c0.6,0,1,0.4,1,1
			C329.3,305.5,328.9,306,328.3,306z"/>
		<path id="XMLID_180_" class="st21" d="M334.2,307.7c-0.6,0-1-0.4-1-1c0-0.6,0.5-1,1-1c0.6,0,1,0.4,1,1
			C335.2,307.3,334.8,307.7,334.2,307.7z"/>
		<path id="XMLID_179_" class="st21" d="M320.5,310.5c0.6,0,1,0.4,1,1c0,0.5-0.5,1-1,1c-0.6,0-1-0.4-1-1
			C319.5,310.9,319.9,310.5,320.5,310.5z"/>
		<path id="XMLID_178_" class="st21" d="M337.5,311.5c0,0.6-0.4,1-1,1c-0.6,0-1-0.4-1-1c0-0.5,0.5-1,1-1
			C337.1,310.5,337.5,310.9,337.5,311.5z"/>
		<path id="XMLID_177_" class="st21" d="M328.3,326c-0.6,0-1-0.4-1-1c0-0.6,0.4-1,1-1c0.6,0,1,0.4,1,1
			C329.3,325.5,328.9,326,328.3,326z"/>
		<path id="XMLID_176_" class="st21" d="M322.3,307.7c-0.6,0-1-0.4-1-1c0-0.6,0.4-1,1-1c0.6,0,1,0.4,1,1
			C323.4,307.2,322.9,307.7,322.3,307.7z"/>
	</g>
	<g id="XMLID_8_">
		<path id="XMLID_290_" class="st21" d="M415.2,444.9c-0.4-0.2-0.5-0.5-0.5-0.9c0-8.4,0-16.8,0-25.1c0-0.1,0-0.2,0-0.3
			c0.5,0,1,0,1.5,0c0,8.3,0,16.5,0,24.8c1,0,2,0,3,0c0-4.7,0-9.5,0-14.2c0.5,0,1,0,1.5,0c0,4.7,0,9.5,0,14.2c1,0,2,0,3,0
			c0-8.3,0-16.5,0-24.8c0.5,0,1,0,1.5,0c0,0.1,0,0.2,0,0.3c0,8.4,0,16.8,0,25.1c0,0.4-0.1,0.7-0.5,0.9
			C421.5,444.9,418.4,444.9,415.2,444.9z"/>
		<path id="XMLID_286_" class="st21" d="M428.7,444.9c-0.4-0.2-0.5-0.5-0.5-0.9c0-1.9,0-3.8,0-5.7c0-0.7,0.2-0.9,0.9-0.9
			c1.3,0,2.7,0,4,0c0.1,0,0.2,0,0.3,0c0-0.8,0-1.5,0-2.3c-0.1,0-0.2,0-0.3,0c-1.3,0-2.7,0-4,0c-0.7,0-0.9-0.2-0.9-0.9
			c0-1.9,0-3.8,0-5.7c0-0.7,0.2-0.9,0.9-0.9c3.4,0,6.8,0,10.2,0c0.7,0,0.9,0.2,0.9,0.9c0,1.9,0,3.8,0,5.7c0,0.6-0.3,0.9-0.9,0.9
			c-1.3,0-2.7,0-4,0c-0.1,0-0.2,0-0.3,0c0,0.8,0,1.5,0,2.3c0.1,0,0.2,0,0.3,0c1.4,0,2.7,0,4.1,0c0.6,0,0.9,0.2,0.9,0.9
			c0,1.9,0,3.8,0,5.7c0,0.4-0.1,0.7-0.5,0.9C436.1,444.9,432.4,444.9,428.7,444.9z M429.7,433.6c3,0,6,0,9,0c0-1.5,0-3,0-4.5
			c-3,0-6,0-9,0C429.7,430.7,429.7,432.1,429.7,433.6z M429.7,443.4c3,0,6,0,9,0c0-1.5,0-3,0-4.5c-0.1,0-0.1,0-0.2,0
			c-2.8,0-5.7,0-8.5,0c-0.2,0-0.3,0.1-0.3,0.3c0,1.2,0,2.5,0,3.7C429.7,443.1,429.7,443.2,429.7,443.4z"/>
		<path id="XMLID_282_" class="st21" d="M444.5,444.9c-0.4-0.2-0.5-0.5-0.5-0.9c0-1.9,0-3.8,0-5.7c0-0.7,0.2-0.9,0.9-0.9
			c1.3,0,2.7,0,4,0c0.1,0,0.2,0,0.3,0c0-0.8,0-1.5,0-2.3c-0.1,0-0.2,0-0.3,0c-1.3,0-2.7,0-4,0c-0.7,0-0.9-0.2-0.9-0.9
			c0-1.9,0-3.8,0-5.8c0-0.7,0.2-0.9,0.9-0.9c3.4,0,6.8,0,10.2,0c0.3,0,0.6,0.1,0.9,0.4c0,2.3,0,4.5,0,6.8c-0.2,0.3-0.5,0.4-0.9,0.4
			c-1.3,0-2.7,0-4,0c-0.1,0-0.2,0-0.3,0c0,0.8,0,1.5,0,2.3c0.1,0,0.2,0,0.3,0c1.3,0,2.6,0,3.9,0c0.4,0,0.7,0.1,0.9,0.4
			c0,2.3,0,4.5,0,6.8c-0.2,0.1-0.3,0.3-0.5,0.4C451.9,444.9,448.2,444.9,444.5,444.9z M445.5,429.2c0,1.5,0,3,0,4.5c3,0,6,0,9,0
			c0-1.5,0-3,0-4.5C451.5,429.2,448.5,429.2,445.5,429.2z M445.5,443.4c3,0,6,0,9,0c0-1.5,0-3,0-4.5c-0.1,0-0.1,0-0.2,0
			c-2.8,0-5.7,0-8.5,0c-0.2,0-0.3,0.1-0.3,0.3c0,1.2,0,2.5,0,3.7C445.5,443.1,445.5,443.2,445.5,443.4z"/>
		<path id="XMLID_279_" class="st21" d="M410.9,417.3c0.1-0.3,0.1-0.6,0.2-0.9c0.6-2.2,2.6-3.8,4.9-3.8c2.6,0,5.1,0,7.7,0
			c4.2,0,8.3,0,12.5,0c0.1,0,0.2,0,0.3,0c0.5,0,0.8,0.3,0.8,0.7c0,1.3,0,2.5,0,3.8c0,0.5-0.3,0.7-0.8,0.7c-2.9,0-5.9,0-8.8,0
			c-0.1,0-0.1,0-0.2,0c0-0.5,0-0.9,0-1.4c0,0,0.1-0.1,0.2-0.1c0.3,0,0.5,0,0.8,0c2.3,0,4.6,0,6.9,0c0.1,0,0.2,0,0.3,0
			c0-0.8,0-1.5,0-2.3c-0.1,0-0.2,0-0.3,0c-4.1,0-8.2,0-12.3,0c-0.2,0-0.3,0.1-0.4,0.3c-0.6,1.7-1.3,3.4-1.9,5.1
			c-0.2,0.5-0.8,0.8-1.2,0.5c-0.2-0.1-0.3-0.3-0.4-0.5c-0.7-1.7-1.3-3.4-2-5.2c-0.1-0.2-0.2-0.3-0.4-0.3c-0.8,0-1.5,0-2.2,0.3
			c-1.4,0.7-2.2,1.7-2.2,3.3c0,3.4,0,6.9,0,10.3c0,0.5,0,0.4-0.4,0.4c-0.4,0-0.7,0-1.1,0C410.9,424.7,410.9,421,410.9,417.3z
			 M418.8,414.1c0.4,1.1,0.8,2.1,1.2,3.1c0.4-1.1,0.8-2.1,1.2-3.1C420.4,414.1,419.6,414.1,418.8,414.1z"/>
		<path id="XMLID_276_" class="st21" d="M450.2,399.8c0.4,0.2,0.6,0.5,0.6,0.9c0,2.9,0,5.8,0,8.7c0,0.7-0.3,0.9-0.9,0.9
			c-5.4,0-10.8,0-16.2,0c-0.7,0-0.9-0.2-0.9-0.9c0-2.9,0-5.8,0-8.7c0-0.4,0.1-0.7,0.5-0.9C438.9,399.8,444.6,399.8,450.2,399.8z
			 M434.2,408.8c5,0,10,0,15,0c0-2.5,0-5,0-7.5c-5,0-10,0-15,0C434.2,403.8,434.2,406.3,434.2,408.8z"/>
		<path id="XMLID_274_" class="st21" d="M455.6,444.9c0.2-0.1,0.3-0.3,0.5-0.4c0,0.1,0,0.3,0,0.4
			C455.9,444.9,455.7,444.9,455.6,444.9z"/>
		<path id="XMLID_273_" class="st21" d="M435,424.6c0,0.5,0,1,0,1.5c-0.5,0-1,0-1.5,0c0-0.1,0-0.2,0-0.3c0-0.6,0-1.3,0-1.9
			c0-0.6,0.3-0.8,0.8-0.9c0.3,0,0.5,0,0.8,0c1.8,0,3.6,0,5.5,0c0.1,0,0.2,0,0.4,0c0-0.1,0-0.2,0-0.4c0-3.5,0-7.1,0-10.6
			c0-0.3,0.1-0.4,0.3-0.3c0.4,0,0.8,0,1.2,0c0,3.8,0,7.5,0,11.3c0.1,0,0.2,0,0.3,0c2.3,0,4.6,0,7,0c0.7,0,1,0.2,1,1
			c0,0.6,0,1.2,0,1.8c0,0.2-0.1,0.2-0.2,0.2c-0.4,0-0.8,0-1.3,0c0-0.3,0-0.5,0-0.7c0-0.2,0-0.5,0-0.8
			C444.5,424.6,439.8,424.6,435,424.6z"/>
		<path id="XMLID_270_" class="st21" d="M424.5,407c-0.1,0.7-0.1,1.5-0.2,2.2c-0.4,1.6-1.8,2.6-3.4,2.7c-0.8,0-1.6,0-2.4-0.1
			c-1.7-0.2-3-1.8-3-3.5c0-0.9,0-1.7,0-2.6c0-1.8,1.4-3.4,3.1-3.5c1.1-0.1,2.2-0.2,3.2,0.1c1.6,0.4,2.7,1.9,2.7,3.5
			C424.5,406.2,424.5,406.6,424.5,407C424.5,407,424.5,407,424.5,407z M422.9,407C422.9,407,422.9,407,422.9,407c0-0.4,0-0.8,0-1.3
			c0-1-0.7-1.9-1.7-2c-0.7-0.1-1.5-0.1-2.2-0.1c-1.1,0-2.1,1-2.1,2.1c0,0.9,0,1.7,0,2.6c0,1,0.7,1.8,1.6,2c0.8,0.1,1.6,0.1,2.4,0.1
			c1-0.1,1.8-0.8,1.9-1.8C423,408,422.9,407.5,422.9,407z"/>
		<path id="XMLID_269_" class="st21" d="M419.2,424.6c0.5,0,1,0,1.4,0c0,0.5,0,1,0,1.5c-0.5,0-1,0-1.4,0
			C419.2,425.6,419.2,425.2,419.2,424.6z"/>
		<path id="XMLID_268_" class="st21" d="M420.7,421.6c0,0.5,0,1,0,1.4c-0.5,0-1,0-1.5,0c0-0.5,0-1,0-1.4
			C419.7,421.6,420.2,421.6,420.7,421.6z"/>
		<path id="XMLID_245_" class="st21" d="M432,430.7c0.5,0,1,0,1.5,0c0,0.5,0,1,0,1.5c-0.5,0-1,0-1.5,0
			C432,431.6,432,431.2,432,430.7z"/>
		<path id="XMLID_244_" class="st21" d="M436.5,430.7c0,0.5,0,1,0,1.4c-0.5,0-1,0-1.5,0c0-0.5,0-1,0-1.4
			C435.5,430.7,436,430.7,436.5,430.7z"/>
		<path id="XMLID_243_" class="st21" d="M433.5,441.9c-0.5,0-0.9,0-1.3,0c-0.1,0-0.1-0.1-0.2-0.2c0-0.4,0-0.9,0-1.3c0.5,0,1,0,1.5,0
			C433.5,440.9,433.5,441.4,433.5,441.9z"/>
		<path id="XMLID_242_" class="st21" d="M436.5,441.9c-0.5,0-1,0-1.5,0c0-0.5,0-1,0-1.5c0.5,0,1,0,1.5,0
			C436.5,440.9,436.5,441.4,436.5,441.9z"/>
		<path id="XMLID_241_" class="st21" d="M447.8,430.7c0.5,0,1,0,1.5,0c0,0.5,0,1,0,1.5c-0.5,0-1,0-1.5,0
			C447.8,431.6,447.8,431.2,447.8,430.7z"/>
		<path id="XMLID_240_" class="st21" d="M452.3,432.1c-0.5,0-1,0-1.5,0c0-0.5,0-1,0-1.5c0.5,0,1,0,1.5,0
			C452.3,431.2,452.3,431.6,452.3,432.1z"/>
		<path id="XMLID_239_" class="st21" d="M449.3,440.4c0,0.5,0,1,0,1.5c-0.5,0-0.9,0-1.4,0c0,0-0.1-0.1-0.1-0.2c0-0.4,0-0.9,0-1.3
			C448.3,440.4,448.8,440.4,449.3,440.4z"/>
		<path id="XMLID_238_" class="st21" d="M450.8,441.9c0-0.5,0-1,0-1.5c0.5,0,1,0,1.5,0c0,0.5,0,1,0,1.5
			C451.8,441.9,451.3,441.9,450.8,441.9z"/>
		<path id="XMLID_237_" class="st21" d="M435.8,407.3c0-0.5,0-1,0-1.4c4,0,8,0,12,0c0,0.5,0,1,0,1.4
			C443.8,407.3,439.8,407.3,435.8,407.3z"/>
		<path id="XMLID_236_" class="st21" d="M444.8,402.8c0,0.5,0,1,0,1.5c-3,0-6,0-9,0c0-0.5,0-1,0-1.5
			C438.8,402.8,441.7,402.8,444.8,402.8z"/>
	</g>
	<g id="XMLID_4_">
		<path id="XMLID_122_" class="st21" d="M179.3,472.4c0-9.1,0-18.1,0-27.2c0.2-0.5,0.5-0.8,1-1c13.1,0,26.2,0,39.3,0
			c0.5,0.2,0.8,0.5,1,1c0,9.1,0,18.1,0,27.2c-0.3,0.6-0.7,1-1.4,0.9c-0.5,0-1,0-1.4,0c-0.1,0-0.2,0-0.3,0c0.1-0.2,0.3-0.4,0.4-0.6
			c0.1-0.3,0.3-0.6,0.3-1c0-2.5,0-4.9,0-7.4c0-1.3-0.5-2.4-1.4-3.4c-0.7-0.7-1.6-1.1-2.6-1.4c-0.7-0.2-1.4-0.4-2,0.2
			c-0.1-0.1-0.2-0.2-0.2-0.3c2.6-1.2,3.7-3.9,3.1-6.3c-0.6-2.3-2.7-4-5.1-4c-2.4,0-4.5,1.6-5.2,3.9c-0.7,2.3,0.2,5.1,3,6.4
			c-0.1,0.1-0.2,0.2-0.2,0.3c-0.4-0.3-0.8-0.5-1.3-0.3c-0.6,0.2-1.2,0.3-1.7,0.5c-1.9,0.8-3,2.5-3,4.6c0,2.2,0,4.4,0,6.5
			c0,0.7,0.1,1.4,0.6,2c0,0,0,0.1,0.1,0.2c-0.2,0-0.3,0-0.4,0c-6.8,0-13.7,0-20.5,0C180.2,473.4,179.7,473.2,179.3,472.4z
			 M198.7,455.8c0,0.6,0,1.2,0,1.7c0,0.8,0.5,1.4,1.3,1.3c0.7,0,1.2-0.6,1.2-1.3c0-1.5,0-3.1,0-4.6c0-0.8-0.5-1.3-1.3-1.4
			c-1.6,0-3.1,0-4.7,0c-0.8,0-1.3,0.5-1.3,1.3c0,0.7,0.5,1.2,1.3,1.2c0.5,0,0.9,0,1.4,0c0.1,0,0.2,0,0.2,0c-1.4,1.4-2.8,2.8-4.2,4.2
			c-0.5-0.5-0.9-1-1.4-1.5c-0.5-0.5-1.3-0.5-1.8,0c-1.6,1.6-3.3,3.2-4.9,4.9c-0.4,0.4-0.5,1-0.2,1.5c0.4,0.7,1.4,0.8,2,0.2
			c1.2-1.2,2.4-2.4,3.6-3.6c0.1-0.1,0.1-0.2,0.2-0.4c0.6,0.6,1,1,1.5,1.5c0.6,0.6,1.3,0.6,2,0c0.9-0.9,1.8-1.8,2.7-2.7
			C197.1,457.4,197.9,456.6,198.7,455.8z"/>
		<path id="XMLID_115_" class="st21" d="M205.7,486.4c-0.1-0.2-0.2-0.4-0.2-0.6c0-3.2,0-6.3,0-9.5c0-0.2-0.1-0.4-0.2-0.6
			c-0.8-1.2-1.6-2.4-2.4-3.6c-0.1-0.1-0.1-0.3-0.1-0.5c0-2.4,0-4.8,0-7.2c0-1.6,1-2.8,2.5-3.3c0.2-0.1,0.5-0.1,0.7-0.2
			c0.3-0.1,0.4-0.1,0.5,0.2c0.8,2.2,1.6,4.4,2.4,6.5c0.2,0.6,0.8,0.9,1.2,0.5c0.2-0.1,0.3-0.4,0.4-0.6c0.8-2.1,1.6-4.3,2.4-6.4
			c0.1-0.3,0.2-0.4,0.5-0.3c0.5,0.2,1.1,0.4,1.6,0.7c1,0.6,1.5,1.5,1.5,2.6c0,2.5,0,5,0,7.5c0,0.1-0.1,0.3-0.2,0.4
			c-0.8,1.2-1.6,2.4-2.3,3.6c-0.1,0.2-0.2,0.4-0.2,0.7c0,3.2,0,6.3,0,9.5c0,0.2-0.1,0.4-0.2,0.5
			C210.9,486.4,208.3,486.4,205.7,486.4z"/>
		<path id="XMLID_111_" class="st21" d="M209.6,458.5c-2.1,0-3.9-1.7-3.9-3.9c0-2.1,1.7-3.9,3.9-3.9c2.2,0,3.9,1.7,3.9,3.9
			C213.5,456.7,211.8,458.5,209.6,458.5z"/>
		<path id="XMLID_110_" class="st21" d="M209.6,460.8c0.2,0,0.4,0,0.6,0c0.4,0,0.6,0.4,0.4,0.8c0,0,0,0,0,0
			c-0.7,0.7-0.6,1.5-0.4,2.3c0.2,0.9-0.1,1.7-0.5,2.6c-0.1,0.2-0.3,0.2-0.3,0c-0.3-0.8-0.7-1.6-0.5-2.5c0.1-0.4,0.1-0.9,0.2-1.3
			c0-0.1,0-0.2-0.1-0.3c-0.2-0.3-0.3-0.5-0.5-0.7c-0.2-0.4,0-0.8,0.4-0.8C209.2,460.8,209.4,460.8,209.6,460.8z"/>
	</g>
	<g id="XMLID_6_">
		<path id="XMLID_160_" class="st21" d="M560,312.8c0,10.5,0,20.9,0,31.4c-0.9,1.4-2.3,1.9-3.9,1.8c-3.9-0.1-7.7,0-11.6,0
			c-0.1,1.3-0.2,2.5-0.3,3.6c-0.4,0-0.8,0-1.2,0c-0.5-0.1-1-0.3-1.5-0.4c-7.4-1-14.8-2.1-22.2-3.1c0-11.8,0-23.5,0-35.3
			c4.5-0.6,8.9-1.3,13.4-1.9c3.4-0.5,6.9-1,10.3-1.6c0.4,0,0.8,0,1.2,0c0.1,1.1,0.2,2.3,0.3,3.5c4,0,7.8,0.1,11.7,0
			C557.8,310.8,559.1,311.3,560,312.8z M558.4,329.4c0-5.2,0-10.3-0.1-15.4c0-0.5-0.9-1.5-1.5-1.5c-4.1-0.1-8.2-0.1-12.5-0.1
			c0,4.3,0,8.5,0,12.7c1.7,0,3.5,0.1,3.8,2c0.6,3.1-2,3.1-3.8,3.5c0,4.7,0,9.2,0,13.8c3.8,0,7.4,0,11,0c0.5,0,1,0.1,1.3,0
			c0.6-0.3,1.5-0.8,1.6-1.3c0.1-2.7,0.1-5.3,0.1-8c-0.3-0.2-0.6-0.5-0.9-0.7c-0.3,0.6-0.7,1.2-0.9,1.9c-0.4,1.2-1,1.5-2.2,1
			c-0.3-0.1-0.8-0.2-1.1-0.1c-1.4,0.7-1.9,0-3-0.9c-1.4-1.2-2.5-2-1.8-4c0-0.1-0.1-0.3-0.2-0.5c-0.4-1.3,2.2-4.7,3.5-4.6
			c0.1,0,0.1,0,0.2,0.1c1.9,0.2,4-0.5,5.1,1.8C557.3,329.3,557.9,329.3,558.4,329.4z M535.7,323.7c0,2.9,0,5.6,0,8.4
			c1.9,0,3.7,0,5.4,0c0.1-0.2,0.2-0.3,0.3-0.5c-0.4-0.3-0.8-0.9-1.3-1c-0.8-0.2-1.6,0-2.5,0c0-0.8,0-1.3,0-1.9
			c1.1-0.1,2.1-0.1,3.1-0.2c0.1-0.1,0.2-0.3,0.3-0.4c-0.4-0.4-0.7-0.9-1.1-1.1c-0.4-0.2-0.9,0.1-1.3-0.1c-0.4-0.2-0.7-0.6-1.1-0.9
			c0.3-0.3,0.7-0.7,1-0.8c0.7-0.1,1.5,0,2.3,0c0.1-0.2,0.2-0.4,0.3-0.6c-0.4-0.4-0.8-1-1.2-1C538.6,323.5,537.2,323.6,535.7,323.7z
			 M531,329.4c1,1.1,0.9,3.5,3.4,2.5c-0.7-1.4-2-2.7-2-4.1c0-1.3,1.2-2.7,1.8-4c-2.5-0.9-2.3,1.4-3.1,2.4c-1.7-2.6-1.7-2.6-3.4-2.2
			c2.4,2.5,2.3,5.1-0.1,7.6C530.2,332.7,530,330.5,531,329.4z M522.2,331.9c1.4,0,2.5,0.1,3.7,0c0.4,0,0.7-0.4,1.1-0.7
			c-0.4-0.3-0.7-0.6-1.1-0.7c-0.5-0.1-1.1-0.1-1.8-0.1c0-0.6,0-1.1,0-1.5c0.8-0.7,2.7,0.4,2.5-1.7c-1-0.1-1.8-0.1-2.6-0.1
			c-0.5-2.6,1.8-1.2,2.7-2.5c-1.3-1-2.8-0.5-4.4-0.4c0,0.5-0.1,0.9-0.1,1.2C522.2,327.4,522.2,329.5,522.2,331.9z M556.1,332.4
			c0-1.5-1.2-2.7-2.7-2.7c-1.5,0-2.7,1.2-2.7,2.7c0,1.5,1.3,2.9,2.8,2.8C554.9,335.1,556.1,333.8,556.1,332.4z M545.7,329.7
			c0.6-0.9,1.4-1.5,1.3-1.9c-0.2-0.6-0.9-0.9-1.5-1.4c-0.4,0.5-1.1,1-1.1,1.5C544.3,328.4,545,328.9,545.7,329.7z"/>
		<path id="XMLID_145_" class="st21" d="M551.2,325.6c-1.5,0.1-2.4-0.9-2.5-2.4c-0.1-1.6,0.8-2.6,2.5-2.7c1.7-0.1,2.5,0.8,2.6,2.7
			C553.9,324.6,552.9,325.5,551.2,325.6z M551.2,321.1c-0.6,0.9-1.3,1.6-1.2,1.9c0.2,0.6,0.9,0.9,1.4,1.4c0.4-0.5,1.1-1,1.1-1.5
			C552.6,322.5,551.9,322,551.2,321.1z"/>
	</g>
	<g id="XMLID_9_">
		<path id="XMLID_235_" class="st21" d="M676.2,200.2c-0.5-0.1-1-0.2-1.5-0.3c-2-0.5-3.6-1.5-5-2.9c-0.1-0.1-0.2-0.2-0.3-0.4
			c-0.7,0.5-1.5,0.7-2.3,0.7c-1.8,0-3.4-1.6-3.4-3.4c0-1.8,0-3.6,0-5.4c0-1.8,1.1-2.9,2.9-3c0.5,0,1.1,0.1,1.4-0.1
			c0.4-0.2,0.5-0.8,0.8-1.2c3.6-5,10.7-5.7,15.1-1.4c0.7,0.7,1.2,1.5,1.8,2.3c0.1,0.2,0.3,0.3,0.5,0.3c0.6,0,1.1,0,1.7,0.1
			c1.6,0.3,2.4,1.2,2.5,2.8c0,1.8,0.1,3.7,0,5.5c-0.1,2.6-3,4.2-5.3,2.9c-0.1-0.1-0.3-0.2-0.4-0.2c-0.8,0.9-1.6,1.6-2.7,2.2
			c-1.2,0.7-2.5,1.1-3.9,1.3c-0.1,0-0.2,0-0.2,0.1C677.4,200.2,676.8,200.2,676.2,200.2z M670.9,193.1c0,0.9,0,1.7-0.5,2.4
			c0,0,0,0.1,0,0.1c3.4,4.1,9.7,4.3,13.3,0.1c0.1-0.1,0.1-0.3,0-0.4c-0.1-0.6-0.3-1.1-0.4-1.7c0-0.2,0-0.3,0-0.5c-0.8,0-1.6,0-2.3,0
			c-0.1,0-0.2,0.1-0.3,0.2c-2.1,2.2-5.1,2.2-7.2,0c-0.1-0.1-0.2-0.2-0.3-0.2C672.4,193.1,671.7,193.1,670.9,193.1z M680.6,190.2
			c0-1.9-1.6-3.5-3.5-3.5c-1.9,0-3.5,1.6-3.5,3.5c0,1.9,1.6,3.5,3.5,3.5C679,193.6,680.6,192.1,680.6,190.2z M684.7,188.5
			c0.5,0,0.9,0,1.4,0c0.5,0,0.8,0.2,0.8,0.6c0,0.4-0.3,0.7-0.8,0.7c-0.5,0-0.9,0-1.4,0c0,0.4,0,0.8,0,1.2c0.5,0,0.9,0,1.4,0
			c0.4,0,0.7,0.2,0.7,0.6c0,0.4-0.2,0.7-0.7,0.7c-0.5,0-0.9,0-1.4,0c0,0.4,0,0.7,0,1.1c0.4,0,0.8,0,1.2,0c0.6,0,0.9,0.2,0.9,0.6
			c0,0.4-0.3,0.7-0.9,0.7c-0.3,0-0.7,0-1,0c0.4,0.9,1.3,1.4,2.3,1.3c0.9-0.1,1.8-0.8,1.9-1.8c0.1-0.6,0.1-1.3,0.1-1.9
			c0-1.4,0-2.8-0.1-4.2c0-0.6-0.3-1-0.9-1.1c-0.7-0.1-1.5-0.1-2.2-0.1C685.1,187,684.7,187.5,684.7,188.5z M669.5,188.5
			c0-0.9-0.3-1.3-1-1.5c-0.8-0.2-1.6-0.2-2.4,0c-0.6,0.2-1,0.6-1,1.2c0,1.9-0.1,3.8,0,5.7c0,1,0.6,1.7,1.5,2
			c1.1,0.4,2.4-0.2,2.7-1.2c-0.4,0-0.8,0-1.1,0c-0.5,0-0.8-0.3-0.8-0.7c0-0.4,0.3-0.6,0.8-0.7c0.5,0,0.9,0,1.4,0c0-0.4,0-0.7,0-1.1
			c-0.3,0-0.5,0-0.7,0c-0.2,0-0.5,0-0.7,0c-0.5,0-0.8-0.4-0.7-0.8c0.1-0.4,0.4-0.5,0.7-0.5c0.5,0,0.9,0,1.4,0c0-0.4,0-0.8,0-1.2
			c-0.5,0-0.9,0-1.4,0c-0.4,0-0.7-0.3-0.7-0.6c0-0.4,0.3-0.7,0.7-0.7C668.5,188.5,669,188.5,669.5,188.5z M669.5,185.9
			c1,0.8,1.1,1,1.4,2.5c0.4,0,0.9,0,1.4,0c0.2,0,0.4-0.1,0.5-0.3c0.5-1.1,1.3-1.9,2.3-2.3c0.3-0.1,0.3-0.3,0.3-0.5
			c0-1.1,0-2.1,0-3.2c0-0.1,0-0.3,0-0.4C672.8,182.2,670.8,183.7,669.5,185.9z M678.8,181.6c0,1.3,0,2.6,0,3.9
			c0,0.1,0.1,0.2,0.2,0.3c1.1,0.5,2,1.4,2.5,2.5c0,0.1,0.1,0.2,0.2,0.2c0.6,0,1.1,0,1.6,0c0.2-0.5,0.2-1,0.4-1.4
			c0.2-0.4,0.6-0.7,0.9-1.1C683.4,183.7,681.4,182.2,678.8,181.6z M682,189.8c-0.1,0.7-0.2,1.4-0.3,2.1c0.5,0,1,0,1.4,0
			c0.1,0,0.2-0.2,0.2-0.3c0-0.5,0-1,0-1.5c0-0.1-0.1-0.3-0.2-0.3C682.8,189.7,682.4,189.8,682,189.8z M672.2,189.8
			c-0.4,0-0.7,0-1.1,0c-0.1,0-0.2,0.2-0.2,0.3c0,0.5,0,1,0,1.5c0,0.1,0.1,0.3,0.2,0.3c0.5,0,1,0,1.5,0
			C672.4,191.1,672.3,190.5,672.2,189.8z M677.4,185.3c0-1.3,0-2.6,0-3.8c-0.3,0-0.5,0-0.7,0c0,1.3,0,2.5,0,3.8
			C677,185.3,677.2,185.3,677.4,185.3z"/>
		<path id="XMLID_232_" class="st21" d="M677.8,150.2c0.3,0.1,0.5,0.1,0.8,0.2c0.2,0.1,0.4,0.1,0.5,0.3c0.4,0.7,1.1,0.5,1.8,0.7
			c1.6,0.3,3.2,0.8,4.5,1.9c1.3,1.1,2,2.6,2.2,4.3c0.1,1.2,0.1,2.5,0.2,3.7c0,0.6-0.2,0.8-0.9,0.8c-3.3,0-6.7,0-10,0
			c-3.1,0-6.3,0-9.4,0c-0.8,0-1-0.2-1-1c0-1.5,0-3.1,0.4-4.6c0.6-2.5,2.3-4,4.7-4.7c0.9-0.3,1.9-0.4,2.9-0.6c0.1,0,0.2,0,0.3-0.1
			c0.4-0.7,1.1-0.7,1.7-0.9c0,0,0,0,0.1,0C676.9,150.2,677.3,150.2,677.8,150.2z M667.8,160.7c6.2,0,12.4,0,18.7,0
			c-0.1-1-0.1-2-0.2-2.9c-0.3-2.3-1.4-3.9-3.7-4.7c-1.8-0.6-3.7-0.7-5.6-0.7c-1.8,0-3.7,0.1-5.4,0.7c-1.6,0.6-2.8,1.6-3.3,3.2
			C667.8,157.8,667.8,159.3,667.8,160.7z"/>
		<path id="XMLID_231_" class="st21" d="M654.5,172c0.1-0.7,0.2-1.3,0.4-2c0.9-3.4,3.2-5.5,6.5-6.5c0.9-0.3,1.9-0.4,2.8-0.5
			c0.5-0.1,0.9,0.2,0.9,0.6c0,0.5-0.3,0.7-0.8,0.7c-1.7,0.1-3.3,0.5-4.8,1.5c-2,1.3-3.1,3.1-3.4,5.4c-0.1,0.8-0.2,1.6-0.2,2.4
			c0,8.1,0,16.3,0,24.4c0,0.2,0,0.5-0.1,0.6c-0.3,0.5-0.8,0.4-1.2-0.1C654.5,189.8,654.5,180.9,654.5,172z"/>
		<path id="XMLID_230_" class="st21" d="M699.7,198.6c0,0.1-0.1,0.2-0.1,0.2c-0.2,0.1-0.5,0.2-0.7,0.2c-0.3,0-0.4-0.3-0.4-0.6
			c0-0.7,0-1.4,0-2c0-7.7,0-15.3,0-23c0-1.4-0.1-2.8-0.7-4.1c-1-2.5-3-3.9-5.5-4.6c-0.7-0.2-1.5-0.3-2.2-0.3
			c-0.5-0.1-0.8-0.3-0.8-0.7c0-0.4,0.3-0.6,0.9-0.6c2.3,0.2,4.4,0.8,6.2,2.2c1.9,1.5,2.9,3.4,3.3,5.8c0.1,0.3,0.1,0.7,0.2,1
			C699.7,180.9,699.7,189.8,699.7,198.6z"/>
		<path id="XMLID_229_" class="st21" d="M667,165.2c-0.5,1.7,0.1,3.4,1.6,4.1c0.4,0.2,0.5,0.4,0.6,0.8c0.2,1.8,0.7,3.5,1.8,5
			c1.5,1.9,3.4,3.1,5.8,3.4c1.2,0.1,2.4-0.3,3.5-0.8c2.7-1.4,4.2-3.7,4.7-6.7c0-0.3,0.1-0.5,0.1-0.8c0-0.4,0.2-0.7,0.6-0.8
			c1.5-0.7,2.2-2.6,1.5-4.1c-0.2,0.2-0.4,0.3-0.6,0.5c-0.3,0.3-0.7,0.3-1,0c-0.3-0.3-0.3-0.7,0.1-1c0.3-0.2,0.5-0.5,0.9-0.6
			c0.9-0.5,1.7-0.1,2,0.8c0.5,1.8,0.1,4.1-1.9,5.3c-0.2,0.1-0.3,0.2-0.3,0.5c-0.3,2-1,3.9-2.3,5.5c-1.9,2.2-4.3,3.6-7.3,3.6
			c-1.9-0.1-3.6-0.8-5.1-2c-2.2-1.8-3.4-4.1-3.8-6.9c0-0.2-0.2-0.4-0.3-0.5c-1.9-1.2-2.4-3.4-1.9-5.3c0.3-1,1.2-1.4,2.1-0.9
			c0.3,0.2,0.5,0.4,0.8,0.6c0.3,0.3,0.4,0.7,0.1,1c-0.3,0.3-0.6,0.2-1,0C667.4,165.5,667.2,165.4,667,165.2z"/>
		<path id="XMLID_228_" class="st21" d="M658.3,189.9c0-0.9,0-1.9,0-2.8c-0.1-2.2,0.6-4.2,1.8-6c1.8-2.9,4.4-4.9,7.5-6.3
			c0.4-0.2,0.8-0.1,1,0.3c0.1,0.4,0,0.7-0.5,0.9c-2,0.9-3.8,2.1-5.3,3.7c-1.6,1.7-2.7,3.6-3.1,5.9c0,0.1,0,0.3,0,0.4
			c0,2.5,0,5,0,7.5c0,0.7,0.2,1.4,0.4,2.1c0.6,1.6,1.8,2.4,3.5,2.5c0.2,0,0.4,0,0.7,0c0.5,0,0.7,0.3,0.7,0.7c0,0.4-0.3,0.7-0.8,0.6
			c-0.6-0.1-1.3-0.1-1.9-0.3c-2.3-0.6-3.5-2.3-3.8-4.5C658.3,193.1,658.3,191.5,658.3,189.9C658.3,189.9,658.3,189.9,658.3,189.9z"
			/>
		<path id="XMLID_227_" class="st21" d="M695.7,189.9c0,1.1,0,2.3,0,3.4c0,1.1-0.2,2.2-0.7,3.2c-0.9,1.8-2.4,2.7-4.3,2.9
			c-0.3,0-0.6,0.1-0.9,0.1c-0.4,0-0.7-0.3-0.7-0.6c0-0.4,0.2-0.6,0.6-0.7c0.5-0.1,1-0.1,1.4-0.2c1.8-0.4,2.9-1.7,3.1-3.6
			c0.1-0.5,0.1-1,0.1-1.5c0-1.9,0-3.9,0-5.8c0.1-1.7-0.4-3.3-1.2-4.7c-1.6-2.9-4-4.9-7-6.2c-0.1,0-0.2-0.1-0.3-0.1
			c-0.4-0.2-0.5-0.5-0.4-0.9c0.2-0.4,0.5-0.5,0.9-0.3c1.1,0.6,2.2,1.1,3.3,1.8c2.8,1.9,4.8,4.4,5.8,7.7c0.2,0.7,0.3,1.4,0.3,2.1
			C695.8,187.6,695.7,188.7,695.7,189.9C695.7,189.9,695.7,189.9,695.7,189.9z"/>
		<path id="XMLID_226_" class="st21" d="M685.2,180.3c0.1-0.9,0.1-1.8,0.2-2.7c0-0.5,0.3-0.8,0.7-0.8c0.4,0,0.6,0.3,0.6,0.8
			c-0.1,1.2-0.2,2.4-0.2,3.7c0,0.5-0.5,0.8-0.9,0.6c-1.1-0.5-2.1-1-3.2-1.5c-0.4-0.2-0.5-0.5-0.3-0.9c0.2-0.3,0.5-0.5,0.9-0.3
			c0.6,0.3,1.3,0.6,1.9,0.9C684.9,180.2,685.1,180.2,685.2,180.3z"/>
		<path id="XMLID_225_" class="st21" d="M668.9,180.3c0.8-0.4,1.5-0.7,2.3-1c0.2-0.1,0.5-0.1,0.7,0.1c0.2,0.1,0.2,0.4,0.2,0.6
			c0,0.2-0.2,0.4-0.3,0.4c-1,0.5-2.1,1-3.1,1.5c-0.5,0.2-0.9,0-1-0.6c-0.1-1.2-0.2-2.5-0.2-3.7c0-0.4,0.2-0.7,0.6-0.8
			c0.3,0,0.7,0.2,0.7,0.6c0.1,0.6,0.1,1.3,0.1,1.9C668.9,179.7,668.9,180,668.9,180.3z"/>
		<path id="XMLID_224_" class="st21" d="M678.8,168.8c0,0.6,0,1.2,0,1.7c0,0.6-0.3,0.8-0.8,0.8c-0.6,0-1.2,0-1.9,0
			c-0.5,0-0.7-0.3-0.7-0.7c0-0.4,0.3-0.6,0.7-0.6c0.3,0,0.7,0,1,0c0.3,0,0.3-0.1,0.3-0.4c0-0.8,0-1.7,0-2.5c0-0.1,0-0.2,0-0.4
			c0-0.4,0.3-0.7,0.7-0.7c0.4,0,0.7,0.3,0.7,0.7c0,0.4,0,0.8,0,1.2C678.8,168.3,678.8,168.5,678.8,168.8z"/>
		<path id="XMLID_203_" class="st21" d="M680.6,159.5c-2.4,0-4.7,0-7,0c0.1-0.9,0.7-1.6,1.7-1.6c1.2-0.1,2.3-0.1,3.5,0
			c0.6,0,1.1,0.3,1.4,0.8C680.4,158.9,680.5,159.2,680.6,159.5z"/>
	</g>
	<g id="XMLID_11_">
		<path id="XMLID_153_" class="st21" d="M802.4,55.9c0,8.9,0,17.7,0,26.6c-12,0-24.1,0-36.3,0c0-8.8,0-17.7,0-26.6
			c2-3.2,4-6.5,6.1-9.7c8.1,0,16.1,0,24.2,0C798.3,49.4,800.4,52.6,802.4,55.9z M767.4,57.2c0,8.1,0,16,0,23.9c4.3,0,8.4,0,12.5,0
			c0-1.3,0-2.4,0-2.7c1.7-0.6,3.1-1.1,4-1.5c1.5,0.5,2.8,0.9,4.3,1.3c0,0.6,0.1,1.8,0.2,2.9c4.3,0,8.4,0,12.4,0c0-8.1,0-16,0-23.9
			c-4.3,0-8.3,0-12.4,0c-0.1,1.5-0.1,2.9-0.2,3.4c-1.8,0.6-3,1.1-4,1.5c-1.5-0.4-2.8-0.8-4.3-1.3c0-1-0.1-2.3-0.2-3.7
			C775.7,57.2,771.7,57.2,767.4,57.2z M779.8,47.7c-6.9-1-8.7,0.2-11.5,8c3.8,0,7.7,0,11.5,0C779.8,52.8,779.8,50.2,779.8,47.7z
			 M800.1,55.7c-3.1-7.9-4.8-9.1-11.5-8c0,2.6,0,5.3,0,8C792.6,55.7,796.3,55.7,800.1,55.7z M781.3,55.4c2,0,3.9,0,5.8,0
			c0-2.5,0-5.1,0-7.5c-2,0-3.9,0-5.8,0C781.3,50.2,781.3,52.9,781.3,55.4z M784.2,60.9c1.3-1.2,2.3-2.2,3.7-3.6c-2.9,0-4.8,0-7.6,0
			C782,58.9,783,59.8,784.2,60.9z M784.2,78.1c-1.1,1-2.1,1.8-3.4,2.9c2.4,0,4.4,0,6.8,0C786.2,79.9,785.3,79.1,784.2,78.1z"/>
		<path id="XMLID_137_" class="st21" d="M778.4,64.5c4,0,7.8,0,11.7,0c0,3.5,0,6.9,0,10.5c-3.8,0-7.6,0-11.7,0
			C778.4,71.6,778.4,68.2,778.4,64.5z M779.6,65.6c0,2.9,0,5.6,0,8.2c3.2,0,6.2,0,9.3,0c0-2.8,0-5.5,0-8.2
			C785.7,65.6,782.7,65.6,779.6,65.6z"/>
	</g>
	<line id="XMLID_37_" class="st22" x1="24" y1="22" x2="24" y2="631"/>
	<line id="XMLID_38_" class="st22" x1="22" y1="631" x2="828" y2="631"/>
	<path id="XMLID_216_" class="st3" d="M623,780"/>
	<path id="XMLID_260_" class="st23" d="M-140.1,211.7"/>
	<path id="XMLID_214_" class="st3" d="M453.3,920.6"/>
	<path id="XMLID_199_" class="st3" d="M172.3,1154.6"/>
	<g id="XMLID_84_">
		<path id="XMLID_221_" class="st23" d="M120.6,633.2"/>
		<path id="XMLID_82_" class="st23" d="M-644.3,632.8"/>
		<path id="XMLID_200_" class="st23" d="M117.4,1201"/>
		<path id="XMLID_87_" class="st23" d="M116.7,632.1"/>
	</g>
	<g id="XMLID_81_">
		<path id="XMLID_219_" class="st3" d="M68.1,685.7"/>
		<path id="XMLID_43_" class="st3" d="M-696.8,685.3"/>
		<path id="XMLID_220_" class="st3" d="M64.8,1253.5"/>
		<path id="XMLID_83_" class="st3" d="M64.2,684.6"/>
	</g>
	<path id="XMLID_197_" class="st23" d="M17.2,628.3"/>
	<path id="XMLID_198_" class="st23" d="M-35,629.4"/>
	<path id="XMLID_50_" class="st2" d="M391.7,249.5"/>
</g>
</svg>
